# xmcd
#
# Track frame offsets:
#	182
#	13637
#	30475
#	41097
#	52647
#	66250
#	80722
#	93342
#	107522
#	126022
#	143615
#	157335
#	171965
#	188432
#	206062
#	220665
#	235247
#	257487
#	275720
#	291647
#	303982
#	319132
#	331460
#	347282
#
# Disc length: 4768 seconds
#
# Revision: 3
# Processed by: cddbd v1.5.2PL0 Copyright (c) Steve Scherf et al.
# Submitted via: audiograbber 1.83.01
#
DISCID=5a129e18
DTITLE=Various Artist - The Bob Dylan Songbook
DYEAR=1991
DGENRE=Singer/Songwriter
TTITLE0=Cher - All I Really Want To Do
TTITLE1=Rod Stewart - Girl Of The North Country
TTITLE2=Fairport Convention - Si Tu Dois Partir
TTITLE3=Byrds - You Ain't Going Nowhere
TTITLE4=Johnny Cash - Wanted Man
TTITLE5=Flamin Groovies - Absolutely Sweet Marie
TTITLE6=Dave Edmunds - Outlaw Blues
TTITLE7=Alan Price - To Ramona
TTITLE8=Judy Collins - I Pity The Poor Immigrant
TTITLE9=The Band - Tears Of Rage
TTITLE10=Walker Brothers - Love Minus Zero
TTITLE11=Bobby Darin - Blowing In The Wind
TTITLE12=Rod Stewart - Tomorrow Is A Long Time
TTITLE13=Fotheringay - Too Much Of Nothing
TTITLE14=Stan Campbell - Knocking On Heaven's Door
TTITLE15=Faces - Wicked Messenger
TTITLE16=Nina Simone - Ballad Of Hollis Brown
TTITLE17=Manfred Mann's Earth Band - You Angel You
TTITLE18=Julie Driscoll, Brian Auger and The Trinity - This Wheel's On Fire
TTITLE19=Gary Puckett and The Union Gap - Mighty Quinn
TTITLE20=Byrds - Nothing Was Delivered
TTITLE21=The Hollies - When The Ship Comes In
TTITLE22=Johnny Winter - Highway 61 Revisited
TTITLE23=Solomon Burke - Maggie's Farm
EXTD=
EXTT0=
EXTT1=
EXTT2=
EXTT3=
EXTT4=
EXTT5=
EXTT6=
EXTT7=
EXTT8=
EXTT9=
EXTT10=
EXTT11=
EXTT12=
EXTT13=
EXTT14=
EXTT15=
EXTT16=
EXTT17=
EXTT18=
EXTT19=
EXTT20=
EXTT21=
EXTT22=
EXTT23=
PLAYORDER=
